<?xml version="1.0" standalone="no"?>
<!DOCTYPE svg PUBLIC "-//W3C//DTD SVG 20010904//EN"
 "http://www.w3.org/TR/2001/REC-SVG-20010904/DTD/svg10.dtd">
<svg version="1.0" xmlns="http://www.w3.org/2000/svg"
 width="38.000000pt" height="38.000000pt" viewBox="0 0 38.000000 38.000000"
 preserveAspectRatio="xMidYMid meet">

<g transform="translate(0.000000,38.000000) scale(0.100000,-0.100000)"
fill="#000000" stroke="none">
<path d="M20 328 l0 -32 30 29 c17 16 30 30 30 32 0 2 -13 3 -30 3 -27 0 -30
-3 -30 -32z"/>
<path d="M300 357 c0 -2 14 -16 30 -32 l30 -29 0 32 c0 29 -3 32 -30 32 -16 0
-30 -1 -30 -3z"/>
<path d="M20 50 c0 -27 3 -30 32 -30 l32 0 -29 30 c-16 17 -30 30 -32 30 -2 0
-3 -13 -3 -30z"/>
<path d="M325 50 l-29 -30 32 0 c29 0 32 3 32 30 0 17 -1 30 -3 30 -2 0 -16
-13 -32 -30z"/>
</g>
</svg>
